<svg xmlns="http://www.w3.org/2000/svg" xmlns:xlink="http://www.w3.org/1999/xlink" width="146" zoomAndPan="magnify" viewBox="0 0 109.5 121.499994" height="162" preserveAspectRatio="xMidYMid meet" version="1.0"><defs><clipPath id="f0373cd8c7"><path d="M 0 0.0273438 L 109.003906 0.0273438 L 109.003906 120.976562 L 0 120.976562 Z M 0 0.0273438 " clip-rule="nonzero"/></clipPath><clipPath id="7896375239"><path d="M 0 14 L 108.253906 14 L 108.253906 120.226562 L 0 120.226562 Z M 0 14 " clip-rule="nonzero"/></clipPath><clipPath id="18d7f12eb3"><path d="M 27 0.0273438 L 89 0.0273438 L 89 26 L 27 26 Z M 27 0.0273438 " clip-rule="nonzero"/></clipPath><clipPath id="d48e330567"><path d="M 0 14 L 108.253906 14 L 108.253906 120.226562 L 0 120.226562 Z M 0 14 " clip-rule="nonzero"/></clipPath><clipPath id="086ea60522"><path d="M 27 0.0273438 L 89 0.0273438 L 89 26 L 27 26 Z M 27 0.0273438 " clip-rule="nonzero"/></clipPath></defs><g clip-path="url(#f0373cd8c7)"><path fill="#ffffff" d="M 0 0.0273438 L 109.003906 0.0273438 L 109.003906 120.976562 L 0 120.976562 Z M 0 0.0273438 " fill-opacity="1" fill-rule="nonzero"/></g><g clip-path="url(#7896375239)"><path fill="#ecf166" d="M 108.253906 67.527344 C 108.253906 69.253906 108.167969 70.976562 107.996094 72.691406 C 107.820312 74.410156 107.5625 76.113281 107.214844 77.804688 C 106.871094 79.496094 106.441406 81.167969 105.925781 82.820312 C 105.410156 84.46875 104.8125 86.09375 104.136719 87.6875 C 103.457031 89.28125 102.699219 90.835938 101.863281 92.359375 C 101.027344 93.878906 100.117188 95.359375 99.132812 96.792969 C 98.148438 98.226562 97.09375 99.613281 95.96875 100.945312 C 94.84375 102.277344 93.65625 103.554688 92.402344 104.773438 C 91.148438 105.996094 89.835938 107.152344 88.464844 108.246094 C 87.097656 109.339844 85.671875 110.367188 84.199219 111.324219 C 82.726562 112.285156 81.207031 113.171875 79.644531 113.984375 C 78.082031 114.796875 76.480469 115.53125 74.839844 116.191406 C 73.203125 116.851562 71.535156 117.433594 69.839844 117.933594 C 68.144531 118.433594 66.425781 118.855469 64.6875 119.191406 C 62.949219 119.527344 61.199219 119.78125 59.433594 119.949219 C 57.667969 120.117188 55.902344 120.203125 54.128906 120.203125 C 52.355469 120.203125 50.585938 120.117188 48.824219 119.949219 C 47.058594 119.78125 45.308594 119.527344 43.566406 119.191406 C 41.828125 118.855469 40.113281 118.433594 38.414062 117.933594 C 36.71875 117.433594 35.050781 116.851562 33.414062 116.191406 C 31.777344 115.53125 30.175781 114.796875 28.613281 113.984375 C 27.046875 113.171875 25.53125 112.285156 24.054688 111.324219 C 22.582031 110.367188 21.160156 109.339844 19.789062 108.246094 C 18.417969 107.152344 17.105469 105.996094 15.855469 104.773438 C 14.601562 103.554688 13.410156 102.277344 12.285156 100.945312 C 11.160156 99.613281 10.105469 98.226562 9.121094 96.792969 C 8.136719 95.359375 7.226562 93.878906 6.390625 92.359375 C 5.554688 90.835938 4.796875 89.28125 4.121094 87.6875 C 3.441406 86.09375 2.84375 84.46875 2.332031 82.820312 C 1.816406 81.167969 1.386719 79.496094 1.039062 77.804688 C 0.695312 76.113281 0.433594 74.410156 0.261719 72.691406 C 0.0859375 70.976562 0 69.253906 0 67.527344 C 0 65.804688 0.0859375 64.082031 0.261719 62.367188 C 0.433594 60.648438 0.695312 58.945312 1.039062 57.253906 C 1.386719 55.5625 1.816406 53.890625 2.332031 52.238281 C 2.84375 50.585938 3.441406 48.964844 4.121094 47.371094 C 4.796875 45.777344 5.554688 44.21875 6.390625 42.699219 C 7.226562 41.175781 8.136719 39.699219 9.121094 38.265625 C 10.105469 36.832031 11.160156 35.445312 12.285156 34.113281 C 13.410156 32.78125 14.601562 31.503906 15.855469 30.28125 C 17.105469 29.0625 18.417969 27.90625 19.789062 26.8125 C 21.160156 25.71875 22.582031 24.691406 24.054688 23.730469 C 25.53125 22.773438 27.046875 21.886719 28.613281 21.074219 C 30.175781 20.261719 31.777344 19.523438 33.414062 18.863281 C 35.050781 18.203125 36.71875 17.625 38.414062 17.125 C 40.113281 16.621094 41.828125 16.203125 43.566406 15.867188 C 45.308594 15.53125 47.058594 15.277344 48.824219 15.109375 C 50.585938 14.941406 52.355469 14.855469 54.128906 14.855469 C 55.902344 14.855469 57.667969 14.941406 59.433594 15.109375 C 61.199219 15.277344 62.949219 15.53125 64.6875 15.867188 C 66.425781 16.203125 68.144531 16.621094 69.839844 17.125 C 71.535156 17.625 73.203125 18.203125 74.839844 18.863281 C 76.480469 19.523438 78.082031 20.261719 79.644531 21.074219 C 81.207031 21.886719 82.726562 22.773438 84.199219 23.730469 C 85.671875 24.691406 87.097656 25.71875 88.464844 26.8125 C 89.835938 27.90625 91.148438 29.0625 92.402344 30.28125 C 93.65625 31.503906 94.84375 32.78125 95.96875 34.113281 C 97.09375 35.445312 98.148438 36.832031 99.132812 38.265625 C 100.117188 39.699219 101.027344 41.175781 101.863281 42.699219 C 102.699219 44.21875 103.457031 45.777344 104.136719 47.371094 C 104.8125 48.964844 105.410156 50.585938 105.925781 52.238281 C 106.441406 53.890625 106.871094 55.5625 107.214844 57.253906 C 107.5625 58.945312 107.820312 60.648438 107.996094 62.367188 C 108.167969 64.082031 108.253906 65.804688 108.253906 67.527344 Z M 108.253906 67.527344 " fill-opacity="1" fill-rule="nonzero"/></g><g clip-path="url(#18d7f12eb3)"><path fill="#000000" d="M 77.835938 8.199219 C 76.691406 8.589844 75.617188 8.976562 74.542969 9.367188 C 74.421875 9.417969 74.277344 9.441406 74.128906 9.464844 C 73.667969 9.613281 73.375 9.878906 73.472656 10.417969 C 73.886719 12.683594 74.082031 14.976562 73.984375 17.269531 C 73.960938 17.878906 73.789062 18.511719 73.640625 19.121094 C 73.472656 19.878906 73.300781 20.632812 73.082031 21.390625 C 72.738281 22.585938 72.128906 23.707031 71.082031 24.316406 C 70.128906 24.878906 69.007812 24.707031 68.054688 24.023438 C 66.324219 22.78125 64.886719 21.292969 64.175781 19.246094 C 64.007812 18.734375 64.054688 18.148438 63.957031 17.609375 C 63.691406 16.269531 64.128906 15 64.371094 13.707031 C 64.445312 13.367188 64.738281 13.050781 64.910156 12.710938 C 65.105469 12.269531 65.226562 11.808594 65.46875 11.390625 C 66.179688 10.246094 66.8125 9.050781 68.082031 8.367188 C 68.421875 8.199219 68.472656 7.613281 68.179688 7.320312 C 67.910156 7.050781 67.59375 6.785156 67.25 6.636719 C 66.007812 6.101562 64.886719 5.367188 63.46875 5.175781 C 61.175781 4.855469 59.128906 5.34375 57.128906 6.367188 C 56.46875 6.710938 55.835938 7.050781 55.175781 7.394531 C 54.714844 7.636719 54.519531 7.808594 54.785156 8.492188 C 55.324219 9.78125 56.054688 11.074219 55.910156 12.585938 C 55.859375 13.171875 56.175781 13.804688 56.128906 14.390625 C 55.980469 16.34375 55.640625 18.246094 54.910156 20.097656 C 54.199219 21.902344 52.980469 23.195312 51.6875 24.464844 C 51.003906 25.121094 50.128906 25.074219 49.347656 24.878906 C 47.25 24.292969 46.054688 22.730469 45.371094 20.78125 C 45.125 20.050781 45.175781 19.246094 45.078125 18.464844 C 44.933594 17.074219 45.078125 15.660156 45.371094 14.320312 C 45.6875 12.929688 46.152344 11.5625 46.933594 10.269531 C 47.445312 9.441406 47.785156 8.464844 48.445312 7.6875 C 48.761719 7.296875 49.175781 6.976562 49.519531 6.589844 C 49.589844 6.492188 49.640625 6.34375 49.6875 6.246094 C 49.566406 6.246094 49.347656 6.246094 49.296875 6.320312 C 48.859375 7.222656 48.324219 6.6875 47.738281 6.492188 C 45.808594 5.808594 43.882812 5.148438 41.808594 5.832031 C 40.859375 6.148438 39.808594 6.296875 38.929688 6.785156 C 38.054688 7.269531 37.175781 7.757812 36.417969 8.492188 C 35.199219 9.683594 33.929688 10.855469 33.078125 12.320312 C 32.417969 13.417969 31.929688 14.636719 31.46875 15.832031 C 30.929688 17.195312 30.394531 18.636719 30.636719 20.074219 C 30.808594 21.21875 30.808594 22.367188 30.832031 23.511719 C 30.832031 23.804688 30.734375 24.171875 30.5625 24.414062 C 30.296875 24.828125 29.90625 24.878906 29.515625 24.488281 C 29.125 24.097656 28.613281 23.828125 28.34375 23.390625 C 28.027344 22.878906 27.953125 22.242188 27.785156 21.632812 C 27.710938 21.390625 27.636719 21.121094 27.660156 20.855469 C 27.757812 18.878906 27.5625 16.878906 28.222656 14.976562 C 28.367188 14.539062 28.464844 14.074219 28.539062 13.636719 C 28.710938 12.585938 29.199219 11.710938 29.757812 10.78125 C 30.125 10.148438 30.394531 9.417969 30.882812 8.808594 C 31.492188 8.074219 31.929688 7.222656 32.832031 6.710938 C 33.273438 6.464844 33.492188 5.808594 33.90625 5.464844 C 35.566406 4.078125 37.34375 2.882812 39.394531 2.125 C 39.90625 1.929688 40.445312 1.664062 40.980469 1.636719 C 42.078125 1.566406 43.175781 1.589844 44.273438 1.636719 C 45.003906 1.664062 45.808594 1.636719 46.46875 1.90625 C 48.078125 2.539062 49.710938 3.148438 51.078125 4.273438 C 51.226562 4.394531 51.640625 4.367188 51.808594 4.246094 C 52.785156 3.417969 53.785156 2.613281 54.980469 2.125 C 55.882812 1.761719 56.835938 1.539062 57.6875 1.101562 C 59.785156 0.0546875 61.933594 0.222656 64.128906 0.636719 C 65.082031 0.808594 66.007812 1.027344 66.859375 1.515625 C 68.179688 2.246094 69.542969 2.90625 70.542969 4.125 C 70.640625 4.246094 70.765625 4.34375 70.835938 4.464844 C 71.519531 5.613281 71.714844 5.636719 72.910156 5.199219 C 74.058594 4.785156 75.128906 4.199219 76.421875 4.199219 C 77.398438 4.199219 78.375 3.808594 79.351562 3.734375 C 80.007812 3.6875 80.691406 3.90625 81.351562 4.003906 C 81.691406 4.078125 82.058594 4.148438 82.398438 4.273438 C 84.105469 4.882812 85.375 5.953125 86.300781 7.5625 C 87.15625 9.074219 87.449219 10.683594 87.8125 12.34375 C 88.179688 13.929688 88.179688 15.511719 88.179688 17.121094 C 88.179688 17.832031 88.277344 18.511719 88.300781 19.21875 C 88.300781 20.023438 88.351562 20.828125 88.300781 21.609375 C 88.277344 22.21875 88.203125 22.828125 88.007812 23.414062 C 87.910156 23.730469 87.59375 24.097656 87.300781 24.195312 C 86.839844 24.367188 86.375 24.242188 86.132812 23.660156 C 85.960938 23.316406 85.570312 23.074219 85.398438 22.730469 C 84.8125 21.632812 84.667969 20.464844 84.839844 19.195312 C 84.960938 18.316406 84.742188 17.390625 84.742188 16.488281 C 84.742188 14.609375 84.496094 12.757812 84.058594 10.953125 C 83.765625 9.710938 83.105469 8.5625 81.667969 8.222656 C 81.375 8.148438 81.058594 8.171875 80.742188 8.148438 C 80.472656 8.125 80.203125 8.101562 79.960938 8.050781 C 79.570312 7.976562 79.226562 7.808594 78.8125 8.101562 C 78.617188 8.222656 78.277344 8.148438 77.960938 8.171875 M 52.152344 18.390625 C 52.152344 18.34375 52.152344 18.269531 52.199219 18.21875 C 53.152344 17.050781 53.078125 15.585938 53.25 14.246094 C 53.371094 13.246094 52.859375 12.171875 52.589844 11.148438 C 52.519531 10.832031 52.273438 10.539062 52.128906 10.246094 C 51.785156 10.515625 51.394531 10.757812 51.152344 11.101562 C 50.324219 12.222656 49.589844 13.417969 49.226562 14.78125 C 48.933594 15.832031 48.664062 16.878906 48.46875 17.929688 C 48.371094 18.390625 48.394531 18.878906 48.46875 19.34375 C 48.542969 19.828125 48.664062 20.316406 48.859375 20.78125 C 49.03125 21.171875 49.371094 21.292969 49.761719 21.023438 C 50.199219 20.730469 50.664062 20.441406 51.03125 20.050781 C 51.46875 19.5625 51.761719 19 52.199219 18.390625 M 70.375 13.902344 C 70.445312 13.269531 70.519531 12.636719 70.59375 12 C 70.59375 11.929688 70.59375 11.855469 70.59375 11.78125 C 70.496094 11.832031 70.375 11.832031 70.324219 11.90625 C 70.152344 12.171875 70.054688 12.488281 69.859375 12.734375 C 68.859375 13.929688 67.957031 15.097656 67.738281 16.804688 C 67.59375 17.976562 67.664062 18.828125 68.375 19.707031 C 68.8125 20.246094 69.179688 20.246094 69.496094 19.636719 C 69.519531 19.5625 69.542969 19.488281 69.59375 19.414062 C 70.03125 18.925781 70.179688 18.367188 70.152344 17.707031 C 70.152344 17.441406 70.25 17.195312 70.277344 16.929688 C 70.347656 15.929688 70.398438 14.929688 70.398438 13.855469 Z M 70.375 13.902344 " fill-opacity="1" fill-rule="nonzero"/></g><path fill="#000000" d="M 41.003906 59.140625 C 41.101562 60.847656 41.222656 62.53125 41.199219 64.238281 C 41.199219 65.652344 40.882812 67.042969 40.222656 68.308594 C 39.929688 68.847656 39.46875 69.332031 38.980469 69.699219 C 38.394531 70.136719 37.734375 70.503906 37.054688 70.746094 C 35.050781 71.429688 33.417969 71.699219 31.734375 70.039062 C 31.125 69.457031 30.371094 68.992188 29.929688 68.308594 C 29.101562 67.089844 28.539062 65.722656 28.269531 64.261719 C 28.078125 63.210938 27.929688 62.140625 27.734375 61.066406 C 27.710938 60.945312 27.464844 60.75 27.320312 60.75 C 27.003906 60.75 26.660156 60.847656 26.34375 60.847656 C 24.320312 60.992188 22.296875 61.117188 20.269531 61.214844 C 19.660156 61.238281 19.027344 61.140625 18.390625 61.089844 C 18.269531 61.089844 18.148438 61.042969 18.074219 60.96875 C 17.539062 60.554688 16.976562 60.164062 16.515625 59.675781 C 15.832031 58.96875 15.636719 58.117188 15.929688 57.140625 C 16.125 56.507812 16.613281 56.191406 17.171875 56.117188 C 18.488281 55.96875 19.832031 55.898438 21.171875 55.847656 C 22.003906 55.800781 22.855469 55.824219 23.683594 55.847656 C 24.148438 55.847656 24.613281 55.996094 25.074219 56.066406 C 25.199219 56.066406 25.34375 56.140625 25.441406 56.09375 C 26.953125 55.628906 28.492188 55.921875 30.027344 55.847656 C 30.980469 55.800781 31.90625 55.847656 32.855469 55.847656 L 35.832031 55.847656 C 36.90625 55.847656 37.980469 55.847656 39.054688 55.847656 C 39.929688 55.847656 40.347656 56.09375 40.566406 56.921875 C 40.761719 57.652344 40.859375 58.382812 41.027344 59.164062 M 16.878906 58.53125 C 16.878906 58.164062 16.855469 57.773438 16.808594 57.410156 C 16.808594 57.3125 16.734375 57.214844 16.683594 57.117188 C 16.613281 57.164062 16.488281 57.214844 16.441406 57.3125 C 16.195312 57.800781 16.5625 59.140625 17.050781 59.480469 C 17.125 59.53125 17.222656 59.507812 17.320312 59.53125 C 17.292969 59.433594 17.246094 59.359375 17.222656 59.261719 C 17.125 59.042969 17.050781 58.824219 16.878906 58.554688 Z M 16.878906 58.53125 " fill-opacity="1" fill-rule="nonzero"/><path fill="#000000" d="M 86.8125 54.164062 C 87.449219 54.214844 88.035156 54.164062 88.546875 54.3125 C 89.71875 54.628906 90.011719 55.042969 90.011719 56.214844 C 90.011719 58.1875 90.058594 60.164062 90.011719 62.117188 C 89.960938 63.675781 89.300781 65.089844 88.765625 66.527344 C 88.351562 67.652344 87.496094 68.308594 86.546875 68.820312 C 85.617188 69.308594 84.570312 69.480469 83.519531 69.164062 C 83.449219 69.164062 83.351562 69.164062 83.277344 69.164062 C 82.300781 69.382812 81.449219 68.917969 80.667969 68.480469 C 79.984375 68.089844 79.421875 67.503906 78.886719 66.917969 C 78.226562 66.1875 77.546875 65.457031 77.277344 64.457031 C 76.960938 63.308594 76.59375 62.1875 76.519531 60.96875 C 76.496094 60.410156 76.300781 59.871094 76.128906 59.335938 C 76.105469 59.238281 75.863281 59.140625 75.714844 59.164062 C 74.398438 59.214844 73.082031 58.992188 71.765625 59.410156 C 71.542969 59.480469 71.25 59.3125 70.984375 59.3125 C 70.542969 59.3125 70.128906 59.433594 69.691406 59.433594 C 68.640625 59.433594 67.617188 59.359375 66.566406 59.3125 C 66.496094 59.3125 66.347656 59.3125 66.324219 59.3125 C 65.933594 58.480469 64.761719 58.214844 64.835938 57.042969 C 64.910156 55.675781 64.886719 55.75 66.203125 55.164062 C 67.226562 54.726562 68.179688 54.847656 69.152344 55.066406 C 69.324219 55.117188 69.496094 55.09375 69.667969 55.066406 C 70.496094 54.945312 71.300781 54.773438 72.128906 54.703125 C 72.617188 54.652344 73.128906 54.824219 73.617188 54.800781 C 75.691406 54.726562 77.789062 54.628906 79.863281 54.554688 C 80.472656 54.554688 81.082031 54.554688 81.691406 54.53125 C 83.082031 54.457031 84.472656 54.359375 85.863281 54.261719 C 86.15625 54.261719 86.449219 54.214844 86.789062 54.164062 Z M 86.8125 54.164062 " fill-opacity="1" fill-rule="nonzero"/><path fill="#000000" d="M 51.152344 72.308594 C 51.519531 71.457031 52.152344 71.015625 52.980469 71.136719 C 53.980469 71.285156 54.785156 70.722656 55.714844 70.527344 C 57.128906 70.261719 58.519531 69.871094 59.859375 69.40625 C 60.664062 69.136719 61.59375 68.96875 62.054688 68.066406 C 62.152344 67.894531 62.347656 67.75 62.496094 67.601562 C 62.640625 67.480469 62.761719 67.332031 62.910156 67.210938 C 62.714844 67.113281 62.542969 66.917969 62.347656 66.894531 C 60.714844 66.796875 59.226562 66.066406 57.589844 65.894531 C 56.105469 65.722656 54.738281 64.992188 53.589844 63.75 C 52.589844 62.652344 52.226562 61.433594 52.128906 60.117188 C 52.054688 59.214844 52.296875 58.285156 52.421875 57.359375 C 52.421875 57.164062 52.492188 56.996094 52.46875 56.800781 C 52.421875 54.824219 52.761719 52.945312 53.394531 51.09375 C 53.640625 50.386719 53.835938 49.679688 54.007812 48.972656 C 54.226562 48.070312 55.054688 47.484375 55.957031 47.75 C 56.296875 47.847656 56.664062 48.019531 56.589844 48.53125 C 56.371094 49.824219 56.128906 51.140625 55.957031 52.433594 C 55.785156 53.652344 55.324219 54.800781 55.519531 56.09375 C 55.664062 57.164062 55.46875 58.285156 55.273438 59.359375 C 55.03125 60.675781 55.273438 61.3125 56.519531 61.699219 C 58.175781 62.210938 59.835938 62.652344 61.519531 63.113281 C 62.128906 63.285156 62.8125 63.335938 63.398438 63.554688 C 65.082031 64.210938 65.957031 65.480469 66.300781 67.308594 C 66.519531 68.480469 66.03125 69.40625 65.714844 70.382812 C 65.007812 72.453125 63.398438 73.527344 61.398438 74.160156 C 60.007812 74.601562 58.640625 75.113281 57.226562 75.40625 C 56.078125 75.648438 54.859375 75.625 53.6875 75.699219 C 53.640625 75.699219 53.589844 75.699219 53.566406 75.699219 C 52.785156 74.964844 51.492188 74.746094 51.175781 73.503906 C 51.078125 73.113281 51.128906 72.699219 51.152344 72.285156 Z M 51.152344 72.308594 " fill-opacity="1" fill-rule="nonzero"/><path fill="#000000" d="M 62.300781 85.867188 C 62.859375 86.160156 63.398438 86.402344 63.859375 86.746094 C 64.640625 87.257812 65.398438 87.792969 66.128906 88.378906 C 66.496094 88.671875 66.859375 89.039062 67.054688 89.453125 C 67.496094 90.355469 67.640625 91.328125 67.542969 92.328125 C 67.472656 93.132812 66.566406 93.453125 65.8125 92.9375 C 64.859375 92.28125 63.984375 91.5 62.984375 90.914062 C 61.664062 90.136719 60.273438 89.523438 58.910156 88.816406 C 58.226562 88.476562 57.589844 88.085938 56.910156 87.769531 C 55.714844 87.234375 54.519531 86.597656 53.152344 86.625 C 52.664062 86.625 52.199219 86.378906 51.714844 86.402344 C 51.175781 86.429688 50.664062 86.625 50.152344 86.769531 C 48.980469 87.136719 47.90625 87.671875 47.320312 88.84375 C 46.957031 89.574219 46.371094 90.160156 46.347656 91.085938 C 46.347656 91.550781 46.03125 92.011719 45.761719 92.425781 C 45.371094 93.0625 44.492188 93.109375 43.90625 92.621094 C 43.492188 92.28125 42.980469 92.0625 42.542969 91.769531 C 41.859375 91.328125 41.515625 90.085938 41.710938 89.28125 C 42.003906 88.085938 42.785156 87.234375 43.445312 86.257812 C 44.222656 85.113281 45.175781 84.183594 46.417969 83.574219 C 47.882812 82.867188 49.324219 82.085938 51.003906 82.136719 C 51.90625 82.136719 52.8125 82.136719 53.714844 82.28125 C 54.738281 82.429688 55.785156 82.597656 56.761719 82.988281 C 57.980469 83.476562 59.128906 84.210938 60.300781 84.820312 C 60.640625 85.015625 61.007812 85.160156 61.371094 85.355469 C 61.664062 85.527344 61.957031 85.695312 62.324219 85.867188 Z M 62.300781 85.867188 " fill-opacity="1" fill-rule="nonzero"/><path fill="#000000" d="M 21.441406 43.628906 C 21.441406 42.800781 22.050781 42.3125 23.027344 42.214844 C 24.074219 42.09375 25.101562 41.851562 26.148438 41.730469 C 26.5625 41.679688 27.027344 41.777344 27.441406 41.851562 C 28.394531 42.019531 29.269531 41.582031 30.175781 41.582031 C 30.855469 41.582031 31.539062 41.632812 32.222656 41.65625 C 32.371094 41.65625 32.515625 41.703125 32.636719 41.703125 C 33.441406 41.703125 34.246094 41.679688 35.027344 41.703125 C 36.175781 41.753906 37.320312 41.851562 38.441406 41.949219 C 39.027344 41.996094 39.6875 42.703125 39.785156 43.289062 C 39.980469 44.726562 39.636719 45.335938 38.25 45.777344 C 37.929688 45.875 37.539062 45.800781 37.199219 45.777344 C 36.761719 45.753906 36.34375 45.679688 35.90625 45.65625 C 35.246094 45.605469 34.566406 45.460938 33.90625 45.558594 C 32.371094 45.800781 30.808594 45.410156 29.320312 45.921875 C 29.175781 45.972656 28.980469 45.921875 28.808594 45.921875 C 27.34375 45.996094 25.882812 46.09375 24.417969 46.167969 C 23.78125 46.191406 23.148438 46.191406 22.710938 45.605469 C 22.636719 45.507812 22.515625 45.433594 22.417969 45.386719 C 21.683594 45.046875 21.34375 44.460938 21.417969 43.582031 Z M 21.441406 43.628906 " fill-opacity="1" fill-rule="nonzero"/><path fill="#000000" d="M 70.421875 45.265625 C 70.128906 44.996094 69.859375 44.777344 69.570312 44.558594 C 68.933594 44.046875 68.664062 43.386719 68.984375 42.605469 C 69.226562 41.972656 69.886719 41.800781 70.496094 41.730469 C 71.472656 41.582031 72.472656 41.558594 73.472656 41.460938 C 75.253906 41.289062 77.007812 41.09375 78.789062 40.972656 C 79.546875 40.921875 80.300781 41.117188 81.035156 41.070312 C 82.058594 40.972656 83.105469 40.972656 84.105469 40.582031 C 85.300781 40.09375 86.570312 41.019531 86.570312 42.289062 C 86.570312 43.558594 86.570312 43.3125 86.570312 43.824219 C 86.570312 44.558594 86.105469 45.046875 85.351562 45.070312 C 84.351562 45.117188 83.324219 45.167969 82.324219 45.191406 C 80.082031 45.238281 77.863281 45.238281 75.617188 45.335938 C 74.8125 45.363281 74.007812 45.628906 73.203125 45.679688 C 72.472656 45.726562 71.714844 45.628906 70.984375 45.558594 C 70.789062 45.558594 70.617188 45.386719 70.421875 45.289062 M 70.324219 43.898438 C 70.324219 43.65625 70.324219 43.386719 70.25 43.144531 C 70.226562 42.972656 70.105469 42.800781 70.03125 42.628906 C 69.765625 42.824219 69.421875 42.898438 69.519531 43.410156 C 69.691406 44.242188 70.445312 44.460938 70.886719 44.996094 C 70.886719 44.996094 71.007812 44.972656 71.054688 44.949219 C 71.054688 44.875 71.03125 44.777344 70.984375 44.726562 C 70.789062 44.460938 70.570312 44.214844 70.300781 43.898438 Z M 70.324219 43.898438 " fill-opacity="1" fill-rule="nonzero"/><g clip-path="url(#d48e330567)"><path fill="#ecf166" d="M 108.253906 67.527344 C 108.253906 69.253906 108.167969 70.976562 107.996094 72.691406 C 107.820312 74.410156 107.5625 76.113281 107.214844 77.804688 C 106.871094 79.496094 106.441406 81.167969 105.925781 82.820312 C 105.410156 84.46875 104.8125 86.09375 104.136719 87.6875 C 103.457031 89.28125 102.699219 90.835938 101.863281 92.359375 C 101.027344 93.878906 100.117188 95.359375 99.132812 96.792969 C 98.148438 98.226562 97.09375 99.613281 95.96875 100.945312 C 94.84375 102.277344 93.65625 103.554688 92.402344 104.773438 C 91.148438 105.996094 89.835938 107.152344 88.464844 108.246094 C 87.097656 109.339844 85.671875 110.367188 84.199219 111.324219 C 82.726562 112.285156 81.207031 113.171875 79.644531 113.984375 C 78.082031 114.796875 76.480469 115.53125 74.839844 116.191406 C 73.203125 116.851562 71.535156 117.433594 69.839844 117.933594 C 68.144531 118.433594 66.425781 118.855469 64.6875 119.191406 C 62.949219 119.527344 61.199219 119.78125 59.433594 119.949219 C 57.667969 120.117188 55.902344 120.203125 54.128906 120.203125 C 52.355469 120.203125 50.585938 120.117188 48.824219 119.949219 C 47.058594 119.78125 45.308594 119.527344 43.566406 119.191406 C 41.828125 118.855469 40.113281 118.433594 38.414062 117.933594 C 36.71875 117.433594 35.050781 116.851562 33.414062 116.191406 C 31.777344 115.53125 30.175781 114.796875 28.613281 113.984375 C 27.046875 113.171875 25.53125 112.285156 24.054688 111.324219 C 22.582031 110.367188 21.160156 109.339844 19.789062 108.246094 C 18.417969 107.152344 17.105469 105.996094 15.855469 104.773438 C 14.601562 103.554688 13.410156 102.277344 12.285156 100.945312 C 11.160156 99.613281 10.105469 98.226562 9.121094 96.792969 C 8.136719 95.359375 7.226562 93.878906 6.390625 92.359375 C 5.554688 90.835938 4.796875 89.28125 4.121094 87.6875 C 3.441406 86.09375 2.84375 84.46875 2.332031 82.820312 C 1.816406 81.167969 1.386719 79.496094 1.039062 77.804688 C 0.695312 76.113281 0.433594 74.410156 0.261719 72.691406 C 0.0859375 70.976562 0 69.253906 0 67.527344 C 0 65.804688 0.0859375 64.082031 0.261719 62.367188 C 0.433594 60.648438 0.695312 58.945312 1.039062 57.253906 C 1.386719 55.5625 1.816406 53.890625 2.332031 52.238281 C 2.84375 50.585938 3.441406 48.964844 4.121094 47.371094 C 4.796875 45.777344 5.554688 44.21875 6.390625 42.699219 C 7.226562 41.175781 8.136719 39.699219 9.121094 38.265625 C 10.105469 36.832031 11.160156 35.445312 12.285156 34.113281 C 13.410156 32.78125 14.601562 31.503906 15.855469 30.28125 C 17.105469 29.0625 18.417969 27.90625 19.789062 26.8125 C 21.160156 25.71875 22.582031 24.691406 24.054688 23.730469 C 25.53125 22.773438 27.046875 21.886719 28.613281 21.074219 C 30.175781 20.261719 31.777344 19.523438 33.414062 18.863281 C 35.050781 18.203125 36.71875 17.625 38.414062 17.125 C 40.113281 16.621094 41.828125 16.203125 43.566406 15.867188 C 45.308594 15.53125 47.058594 15.277344 48.824219 15.109375 C 50.585938 14.941406 52.355469 14.855469 54.128906 14.855469 C 55.902344 14.855469 57.667969 14.941406 59.433594 15.109375 C 61.199219 15.277344 62.949219 15.53125 64.6875 15.867188 C 66.425781 16.203125 68.144531 16.621094 69.839844 17.125 C 71.535156 17.625 73.203125 18.203125 74.839844 18.863281 C 76.480469 19.523438 78.082031 20.261719 79.644531 21.074219 C 81.207031 21.886719 82.726562 22.773438 84.199219 23.730469 C 85.671875 24.691406 87.097656 25.71875 88.464844 26.8125 C 89.835938 27.90625 91.148438 29.0625 92.402344 30.28125 C 93.65625 31.503906 94.84375 32.78125 95.96875 34.113281 C 97.09375 35.445312 98.148438 36.832031 99.132812 38.265625 C 100.117188 39.699219 101.027344 41.175781 101.863281 42.699219 C 102.699219 44.21875 103.457031 45.777344 104.136719 47.371094 C 104.8125 48.964844 105.410156 50.585938 105.925781 52.238281 C 106.441406 53.890625 106.871094 55.5625 107.214844 57.253906 C 107.5625 58.945312 107.820312 60.648438 107.996094 62.367188 C 108.167969 64.082031 108.253906 65.804688 108.253906 67.527344 Z M 108.253906 67.527344 " fill-opacity="1" fill-rule="nonzero"/></g><g clip-path="url(#086ea60522)"><path fill="#000000" d="M 77.835938 8.199219 C 76.691406 8.589844 75.617188 8.976562 74.542969 9.367188 C 74.421875 9.417969 74.277344 9.441406 74.128906 9.464844 C 73.667969 9.613281 73.375 9.878906 73.472656 10.417969 C 73.886719 12.683594 74.082031 14.976562 73.984375 17.269531 C 73.960938 17.878906 73.789062 18.511719 73.640625 19.121094 C 73.472656 19.878906 73.300781 20.632812 73.082031 21.390625 C 72.738281 22.585938 72.128906 23.707031 71.082031 24.316406 C 70.128906 24.878906 69.007812 24.707031 68.054688 24.023438 C 66.324219 22.78125 64.886719 21.292969 64.175781 19.246094 C 64.007812 18.734375 64.054688 18.148438 63.957031 17.609375 C 63.691406 16.269531 64.128906 15 64.371094 13.707031 C 64.445312 13.367188 64.738281 13.050781 64.910156 12.710938 C 65.105469 12.269531 65.226562 11.808594 65.46875 11.390625 C 66.179688 10.246094 66.8125 9.050781 68.082031 8.367188 C 68.421875 8.199219 68.472656 7.613281 68.179688 7.320312 C 67.910156 7.050781 67.59375 6.785156 67.25 6.636719 C 66.007812 6.101562 64.886719 5.367188 63.46875 5.175781 C 61.175781 4.855469 59.128906 5.34375 57.128906 6.367188 C 56.46875 6.710938 55.835938 7.050781 55.175781 7.394531 C 54.714844 7.636719 54.519531 7.808594 54.785156 8.492188 C 55.324219 9.78125 56.054688 11.074219 55.910156 12.585938 C 55.859375 13.171875 56.175781 13.804688 56.128906 14.390625 C 55.980469 16.34375 55.640625 18.246094 54.910156 20.097656 C 54.199219 21.902344 52.980469 23.195312 51.6875 24.464844 C 51.003906 25.121094 50.128906 25.074219 49.347656 24.878906 C 47.25 24.292969 46.054688 22.730469 45.371094 20.78125 C 45.125 20.050781 45.175781 19.246094 45.078125 18.464844 C 44.933594 17.074219 45.078125 15.660156 45.371094 14.320312 C 45.6875 12.929688 46.152344 11.5625 46.933594 10.269531 C 47.445312 9.441406 47.785156 8.464844 48.445312 7.6875 C 48.761719 7.296875 49.175781 6.976562 49.519531 6.589844 C 49.589844 6.492188 49.640625 6.34375 49.6875 6.246094 C 49.566406 6.246094 49.347656 6.246094 49.296875 6.320312 C 48.859375 7.222656 48.324219 6.6875 47.738281 6.492188 C 45.808594 5.808594 43.882812 5.148438 41.808594 5.832031 C 40.859375 6.148438 39.808594 6.296875 38.929688 6.785156 C 38.054688 7.269531 37.175781 7.757812 36.417969 8.492188 C 35.199219 9.683594 33.929688 10.855469 33.078125 12.320312 C 32.417969 13.417969 31.929688 14.636719 31.46875 15.832031 C 30.929688 17.195312 30.394531 18.636719 30.636719 20.074219 C 30.808594 21.21875 30.808594 22.367188 30.832031 23.511719 C 30.832031 23.804688 30.734375 24.171875 30.5625 24.414062 C 30.296875 24.828125 29.90625 24.878906 29.515625 24.488281 C 29.125 24.097656 28.613281 23.828125 28.34375 23.390625 C 28.027344 22.878906 27.953125 22.242188 27.785156 21.632812 C 27.710938 21.390625 27.636719 21.121094 27.660156 20.855469 C 27.757812 18.878906 27.5625 16.878906 28.222656 14.976562 C 28.367188 14.539062 28.464844 14.074219 28.539062 13.636719 C 28.710938 12.585938 29.199219 11.710938 29.757812 10.78125 C 30.125 10.148438 30.394531 9.417969 30.882812 8.808594 C 31.492188 8.074219 31.929688 7.222656 32.832031 6.710938 C 33.273438 6.464844 33.492188 5.808594 33.90625 5.464844 C 35.566406 4.078125 37.34375 2.882812 39.394531 2.125 C 39.90625 1.929688 40.445312 1.664062 40.980469 1.636719 C 42.078125 1.566406 43.175781 1.589844 44.273438 1.636719 C 45.003906 1.664062 45.808594 1.636719 46.46875 1.90625 C 48.078125 2.539062 49.710938 3.148438 51.078125 4.273438 C 51.226562 4.394531 51.640625 4.367188 51.808594 4.246094 C 52.785156 3.417969 53.785156 2.613281 54.980469 2.125 C 55.882812 1.761719 56.835938 1.539062 57.6875 1.101562 C 59.785156 0.0546875 61.933594 0.222656 64.128906 0.636719 C 65.082031 0.808594 66.007812 1.027344 66.859375 1.515625 C 68.179688 2.246094 69.542969 2.90625 70.542969 4.125 C 70.640625 4.246094 70.765625 4.34375 70.835938 4.464844 C 71.519531 5.613281 71.714844 5.636719 72.910156 5.199219 C 74.058594 4.785156 75.128906 4.199219 76.421875 4.199219 C 77.398438 4.199219 78.375 3.808594 79.351562 3.734375 C 80.007812 3.6875 80.691406 3.90625 81.351562 4.003906 C 81.691406 4.078125 82.058594 4.148438 82.398438 4.273438 C 84.105469 4.882812 85.375 5.953125 86.300781 7.5625 C 87.15625 9.074219 87.449219 10.683594 87.8125 12.34375 C 88.179688 13.929688 88.179688 15.511719 88.179688 17.121094 C 88.179688 17.832031 88.277344 18.511719 88.300781 19.21875 C 88.300781 20.023438 88.351562 20.828125 88.300781 21.609375 C 88.277344 22.21875 88.203125 22.828125 88.007812 23.414062 C 87.910156 23.730469 87.59375 24.097656 87.300781 24.195312 C 86.839844 24.367188 86.375 24.242188 86.132812 23.660156 C 85.960938 23.316406 85.570312 23.074219 85.398438 22.730469 C 84.8125 21.632812 84.667969 20.464844 84.839844 19.195312 C 84.960938 18.316406 84.742188 17.390625 84.742188 16.488281 C 84.742188 14.609375 84.496094 12.757812 84.058594 10.953125 C 83.765625 9.710938 83.105469 8.5625 81.667969 8.222656 C 81.375 8.148438 81.058594 8.171875 80.742188 8.148438 C 80.472656 8.125 80.203125 8.101562 79.960938 8.050781 C 79.570312 7.976562 79.226562 7.808594 78.8125 8.101562 C 78.617188 8.222656 78.277344 8.148438 77.960938 8.171875 M 52.152344 18.390625 C 52.152344 18.34375 52.152344 18.269531 52.199219 18.21875 C 53.152344 17.050781 53.078125 15.585938 53.25 14.246094 C 53.371094 13.246094 52.859375 12.171875 52.589844 11.148438 C 52.519531 10.832031 52.273438 10.539062 52.128906 10.246094 C 51.785156 10.515625 51.394531 10.757812 51.152344 11.101562 C 50.324219 12.222656 49.589844 13.417969 49.226562 14.78125 C 48.933594 15.832031 48.664062 16.878906 48.46875 17.929688 C 48.371094 18.390625 48.394531 18.878906 48.46875 19.34375 C 48.542969 19.828125 48.664062 20.316406 48.859375 20.78125 C 49.03125 21.171875 49.371094 21.292969 49.761719 21.023438 C 50.199219 20.730469 50.664062 20.441406 51.03125 20.050781 C 51.46875 19.5625 51.761719 19 52.199219 18.390625 M 70.375 13.902344 C 70.445312 13.269531 70.519531 12.636719 70.59375 12 C 70.59375 11.929688 70.59375 11.855469 70.59375 11.78125 C 70.496094 11.832031 70.375 11.832031 70.324219 11.90625 C 70.152344 12.171875 70.054688 12.488281 69.859375 12.734375 C 68.859375 13.929688 67.957031 15.097656 67.738281 16.804688 C 67.59375 17.976562 67.664062 18.828125 68.375 19.707031 C 68.8125 20.246094 69.179688 20.246094 69.496094 19.636719 C 69.519531 19.5625 69.542969 19.488281 69.59375 19.414062 C 70.03125 18.925781 70.179688 18.367188 70.152344 17.707031 C 70.152344 17.441406 70.25 17.195312 70.277344 16.929688 C 70.347656 15.929688 70.398438 14.929688 70.398438 13.855469 Z M 70.375 13.902344 " fill-opacity="1" fill-rule="nonzero"/></g><path fill="#000000" d="M 41.003906 59.140625 C 41.101562 60.847656 41.222656 62.53125 41.199219 64.238281 C 41.199219 65.652344 40.882812 67.042969 40.222656 68.308594 C 39.929688 68.847656 39.46875 69.332031 38.980469 69.699219 C 38.394531 70.136719 37.734375 70.503906 37.054688 70.746094 C 35.050781 71.429688 33.417969 71.699219 31.734375 70.039062 C 31.125 69.457031 30.371094 68.992188 29.929688 68.308594 C 29.101562 67.089844 28.539062 65.722656 28.269531 64.261719 C 28.078125 63.210938 27.929688 62.140625 27.734375 61.066406 C 27.710938 60.945312 27.464844 60.75 27.320312 60.75 C 27.003906 60.75 26.660156 60.847656 26.34375 60.847656 C 24.320312 60.992188 22.296875 61.117188 20.269531 61.214844 C 19.660156 61.238281 19.027344 61.140625 18.390625 61.089844 C 18.269531 61.089844 18.148438 61.042969 18.074219 60.96875 C 17.539062 60.554688 16.976562 60.164062 16.515625 59.675781 C 15.832031 58.96875 15.636719 58.117188 15.929688 57.140625 C 16.125 56.507812 16.613281 56.191406 17.171875 56.117188 C 18.488281 55.96875 19.832031 55.898438 21.171875 55.847656 C 22.003906 55.800781 22.855469 55.824219 23.683594 55.847656 C 24.148438 55.847656 24.613281 55.996094 25.074219 56.066406 C 25.199219 56.066406 25.34375 56.140625 25.441406 56.09375 C 26.953125 55.628906 28.492188 55.921875 30.027344 55.847656 C 30.980469 55.800781 31.90625 55.847656 32.855469 55.847656 L 35.832031 55.847656 C 36.90625 55.847656 37.980469 55.847656 39.054688 55.847656 C 39.929688 55.847656 40.347656 56.09375 40.566406 56.921875 C 40.761719 57.652344 40.859375 58.382812 41.027344 59.164062 M 16.878906 58.53125 C 16.878906 58.164062 16.855469 57.773438 16.808594 57.410156 C 16.808594 57.3125 16.734375 57.214844 16.683594 57.117188 C 16.613281 57.164062 16.488281 57.214844 16.441406 57.3125 C 16.195312 57.800781 16.5625 59.140625 17.050781 59.480469 C 17.125 59.53125 17.222656 59.507812 17.320312 59.53125 C 17.292969 59.433594 17.246094 59.359375 17.222656 59.261719 C 17.125 59.042969 17.050781 58.824219 16.878906 58.554688 Z M 16.878906 58.53125 " fill-opacity="1" fill-rule="nonzero"/><path fill="#000000" d="M 86.8125 54.164062 C 87.449219 54.214844 88.035156 54.164062 88.546875 54.3125 C 89.71875 54.628906 90.011719 55.042969 90.011719 56.214844 C 90.011719 58.1875 90.058594 60.164062 90.011719 62.117188 C 89.960938 63.675781 89.300781 65.089844 88.765625 66.527344 C 88.351562 67.652344 87.496094 68.308594 86.546875 68.820312 C 85.617188 69.308594 84.570312 69.480469 83.519531 69.164062 C 83.449219 69.164062 83.351562 69.164062 83.277344 69.164062 C 82.300781 69.382812 81.449219 68.917969 80.667969 68.480469 C 79.984375 68.089844 79.421875 67.503906 78.886719 66.917969 C 78.226562 66.1875 77.546875 65.457031 77.277344 64.457031 C 76.960938 63.308594 76.59375 62.1875 76.519531 60.96875 C 76.496094 60.410156 76.300781 59.871094 76.128906 59.335938 C 76.105469 59.238281 75.863281 59.140625 75.714844 59.164062 C 74.398438 59.214844 73.082031 58.992188 71.765625 59.410156 C 71.542969 59.480469 71.25 59.3125 70.984375 59.3125 C 70.542969 59.3125 70.128906 59.433594 69.691406 59.433594 C 68.640625 59.433594 67.617188 59.359375 66.566406 59.3125 C 66.496094 59.3125 66.347656 59.3125 66.324219 59.3125 C 65.933594 58.480469 64.761719 58.214844 64.835938 57.042969 C 64.910156 55.675781 64.886719 55.75 66.203125 55.164062 C 67.226562 54.726562 68.179688 54.847656 69.152344 55.066406 C 69.324219 55.117188 69.496094 55.09375 69.667969 55.066406 C 70.496094 54.945312 71.300781 54.773438 72.128906 54.703125 C 72.617188 54.652344 73.128906 54.824219 73.617188 54.800781 C 75.691406 54.726562 77.789062 54.628906 79.863281 54.554688 C 80.472656 54.554688 81.082031 54.554688 81.691406 54.53125 C 83.082031 54.457031 84.472656 54.359375 85.863281 54.261719 C 86.15625 54.261719 86.449219 54.214844 86.789062 54.164062 Z M 86.8125 54.164062 " fill-opacity="1" fill-rule="nonzero"/><path fill="#000000" d="M 51.152344 72.308594 C 51.519531 71.457031 52.152344 71.015625 52.980469 71.136719 C 53.980469 71.285156 54.785156 70.722656 55.714844 70.527344 C 57.128906 70.261719 58.519531 69.871094 59.859375 69.40625 C 60.664062 69.136719 61.59375 68.96875 62.054688 68.066406 C 62.152344 67.894531 62.347656 67.75 62.496094 67.601562 C 62.640625 67.480469 62.761719 67.332031 62.910156 67.210938 C 62.714844 67.113281 62.542969 66.917969 62.347656 66.894531 C 60.714844 66.796875 59.226562 66.066406 57.589844 65.894531 C 56.105469 65.722656 54.738281 64.992188 53.589844 63.75 C 52.589844 62.652344 52.226562 61.433594 52.128906 60.117188 C 52.054688 59.214844 52.296875 58.285156 52.421875 57.359375 C 52.421875 57.164062 52.492188 56.996094 52.46875 56.800781 C 52.421875 54.824219 52.761719 52.945312 53.394531 51.09375 C 53.640625 50.386719 53.835938 49.679688 54.007812 48.972656 C 54.226562 48.070312 55.054688 47.484375 55.957031 47.75 C 56.296875 47.847656 56.664062 48.019531 56.589844 48.53125 C 56.371094 49.824219 56.128906 51.140625 55.957031 52.433594 C 55.785156 53.652344 55.324219 54.800781 55.519531 56.09375 C 55.664062 57.164062 55.46875 58.285156 55.273438 59.359375 C 55.03125 60.675781 55.273438 61.3125 56.519531 61.699219 C 58.175781 62.210938 59.835938 62.652344 61.519531 63.113281 C 62.128906 63.285156 62.8125 63.335938 63.398438 63.554688 C 65.082031 64.210938 65.957031 65.480469 66.300781 67.308594 C 66.519531 68.480469 66.03125 69.40625 65.714844 70.382812 C 65.007812 72.453125 63.398438 73.527344 61.398438 74.160156 C 60.007812 74.601562 58.640625 75.113281 57.226562 75.40625 C 56.078125 75.648438 54.859375 75.625 53.6875 75.699219 C 53.640625 75.699219 53.589844 75.699219 53.566406 75.699219 C 52.785156 74.964844 51.492188 74.746094 51.175781 73.503906 C 51.078125 73.113281 51.128906 72.699219 51.152344 72.285156 Z M 51.152344 72.308594 " fill-opacity="1" fill-rule="nonzero"/><path fill="#000000" d="M 62.300781 85.867188 C 62.859375 86.160156 63.398438 86.402344 63.859375 86.746094 C 64.640625 87.257812 65.398438 87.792969 66.128906 88.378906 C 66.496094 88.671875 66.859375 89.039062 67.054688 89.453125 C 67.496094 90.355469 67.640625 91.328125 67.542969 92.328125 C 67.472656 93.132812 66.566406 93.453125 65.8125 92.9375 C 64.859375 92.28125 63.984375 91.5 62.984375 90.914062 C 61.664062 90.136719 60.273438 89.523438 58.910156 88.816406 C 58.226562 88.476562 57.589844 88.085938 56.910156 87.769531 C 55.714844 87.234375 54.519531 86.597656 53.152344 86.625 C 52.664062 86.625 52.199219 86.378906 51.714844 86.402344 C 51.175781 86.429688 50.664062 86.625 50.152344 86.769531 C 48.980469 87.136719 47.90625 87.671875 47.320312 88.84375 C 46.957031 89.574219 46.371094 90.160156 46.347656 91.085938 C 46.347656 91.550781 46.03125 92.011719 45.761719 92.425781 C 45.371094 93.0625 44.492188 93.109375 43.90625 92.621094 C 43.492188 92.28125 42.980469 92.0625 42.542969 91.769531 C 41.859375 91.328125 41.515625 90.085938 41.710938 89.28125 C 42.003906 88.085938 42.785156 87.234375 43.445312 86.257812 C 44.222656 85.113281 45.175781 84.183594 46.417969 83.574219 C 47.882812 82.867188 49.324219 82.085938 51.003906 82.136719 C 51.90625 82.136719 52.8125 82.136719 53.714844 82.28125 C 54.738281 82.429688 55.785156 82.597656 56.761719 82.988281 C 57.980469 83.476562 59.128906 84.210938 60.300781 84.820312 C 60.640625 85.015625 61.007812 85.160156 61.371094 85.355469 C 61.664062 85.527344 61.957031 85.695312 62.324219 85.867188 Z M 62.300781 85.867188 " fill-opacity="1" fill-rule="nonzero"/><path fill="#000000" d="M 21.441406 43.628906 C 21.441406 42.800781 22.050781 42.3125 23.027344 42.214844 C 24.074219 42.09375 25.101562 41.851562 26.148438 41.730469 C 26.5625 41.679688 27.027344 41.777344 27.441406 41.851562 C 28.394531 42.019531 29.269531 41.582031 30.175781 41.582031 C 30.855469 41.582031 31.539062 41.632812 32.222656 41.65625 C 32.371094 41.65625 32.515625 41.703125 32.636719 41.703125 C 33.441406 41.703125 34.246094 41.679688 35.027344 41.703125 C 36.175781 41.753906 37.320312 41.851562 38.441406 41.949219 C 39.027344 41.996094 39.6875 42.703125 39.785156 43.289062 C 39.980469 44.726562 39.636719 45.335938 38.25 45.777344 C 37.929688 45.875 37.539062 45.800781 37.199219 45.777344 C 36.761719 45.753906 36.34375 45.679688 35.90625 45.65625 C 35.246094 45.605469 34.566406 45.460938 33.90625 45.558594 C 32.371094 45.800781 30.808594 45.410156 29.320312 45.921875 C 29.175781 45.972656 28.980469 45.921875 28.808594 45.921875 C 27.34375 45.996094 25.882812 46.09375 24.417969 46.167969 C 23.78125 46.191406 23.148438 46.191406 22.710938 45.605469 C 22.636719 45.507812 22.515625 45.433594 22.417969 45.386719 C 21.683594 45.046875 21.34375 44.460938 21.417969 43.582031 Z M 21.441406 43.628906 " fill-opacity="1" fill-rule="nonzero"/><path fill="#000000" d="M 70.421875 45.265625 C 70.128906 44.996094 69.859375 44.777344 69.570312 44.558594 C 68.933594 44.046875 68.664062 43.386719 68.984375 42.605469 C 69.226562 41.972656 69.886719 41.800781 70.496094 41.730469 C 71.472656 41.582031 72.472656 41.558594 73.472656 41.460938 C 75.253906 41.289062 77.007812 41.09375 78.789062 40.972656 C 79.546875 40.921875 80.300781 41.117188 81.035156 41.070312 C 82.058594 40.972656 83.105469 40.972656 84.105469 40.582031 C 85.300781 40.09375 86.570312 41.019531 86.570312 42.289062 C 86.570312 43.558594 86.570312 43.3125 86.570312 43.824219 C 86.570312 44.558594 86.105469 45.046875 85.351562 45.070312 C 84.351562 45.117188 83.324219 45.167969 82.324219 45.191406 C 80.082031 45.238281 77.863281 45.238281 75.617188 45.335938 C 74.8125 45.363281 74.007812 45.628906 73.203125 45.679688 C 72.472656 45.726562 71.714844 45.628906 70.984375 45.558594 C 70.789062 45.558594 70.617188 45.386719 70.421875 45.289062 M 70.324219 43.898438 C 70.324219 43.65625 70.324219 43.386719 70.25 43.144531 C 70.226562 42.972656 70.105469 42.800781 70.03125 42.628906 C 69.765625 42.824219 69.421875 42.898438 69.519531 43.410156 C 69.691406 44.242188 70.445312 44.460938 70.886719 44.996094 C 70.886719 44.996094 71.007812 44.972656 71.054688 44.949219 C 71.054688 44.875 71.03125 44.777344 70.984375 44.726562 C 70.789062 44.460938 70.570312 44.214844 70.300781 43.898438 Z M 70.324219 43.898438 " fill-opacity="1" fill-rule="nonzero"/></svg>